<svg width="125" height="83" viewBox="0 0 125 83" fill="none" xmlns="http://www.w3.org/2000/svg">
<g opacity="0.07">
<mask id="mask0_1349_6429" style="mask-type:alpha" maskUnits="userSpaceOnUse" x="0" y="0" width="125" height="83">
<rect width="125" height="83" fill="#C4C4C4"/>
</mask>
<g mask="url(#mask0_1349_6429)">
<rect x="-10.1324" y="-31.4741" width="15" height="231" transform="rotate(45 -10.1324 -31.4741)" fill="white"/>
<rect x="30.8676" y="-31" width="15" height="231" transform="rotate(45 30.8676 -31)" fill="white"/>
<rect x="72.8676" y="-31.4741" width="15" height="231" transform="rotate(45 72.8676 -31.4741)" fill="white"/>
<rect x="113.868" y="-31" width="15" height="231" transform="rotate(45 113.868 -31)" fill="white"/>
<rect x="155.868" y="-31.4741" width="15" height="231" transform="rotate(45 155.868 -31.4741)" fill="white"/>
<rect x="196.868" y="-31" width="15" height="231" transform="rotate(45 196.868 -31)" fill="white"/>
<rect x="238.868" y="-31.4741" width="15" height="231" transform="rotate(45 238.868 -31.4741)" fill="white"/>
<rect x="279.868" y="-31" width="15" height="231" transform="rotate(45 279.868 -31)" fill="white"/>
</g>
</g>
</svg>
